<svg class="svg-icon" style="width: 1em; height: 1em;vertical-align: middle;fill: white;overflow: hidden;" viewBox="0 0 1024 1024" version="1.1" xmlns="http://www.w3.org/2000/svg"><path d="M512 85.34016q17.67424 0 30.16704 12.4928t12.4928 30.16704l0 665.00608 225.66912-225.9968q12.32896-12.32896 30.33088-12.32896 18.3296 0 30.49472 12.16512t12.16512 30.49472q0 18.00192-12.32896 30.33088l-298.65984 298.65984q-12.32896 12.32896-30.33088 12.32896t-30.33088-12.32896l-298.65984-298.65984q-12.32896-12.32896-12.32896-30.33088 0-18.3296 12.16512-30.49472t30.49472-12.16512q18.00192 0 30.33088 12.32896l225.66912 225.9968 0-665.00608q0-17.67424 12.4928-30.16704t30.16704-12.4928z"  /></svg>